<?xml version="1.0" encoding="utf-8"?>

<!-- License Agreement at http://iconmonstr.com/license/ -->

<!DOCTYPE svg PUBLIC "-//W3C//DTD SVG 1.1//EN" "http://www.w3.org/Graphics/SVG/1.1/DTD/svg11.dtd">
<svg version="1.1" xmlns="http://www.w3.org/2000/svg" xmlns:xlink="http://www.w3.org/1999/xlink" x="0px" y="0px"
	 width="512px" height="512px" viewBox="0 0 512 512" style="enable-background:new 0 0 512 512;" xml:space="preserve">
<path id="disc-5-icon" d="M462,405.035c-0.033,26.697-20.084,39.799-38.457,39.799c-15.49,0-30.21-9.347-30.21-27.746
	c0-18.943,20.62-36.354,43.168-36.354c2.767,0,5.55,0.261,8.332,0.813v-74.022l-103,21.105v93.554
	C341.8,448.882,321.582,462,303.074,462c-15.558,0-29.908-9.305-29.908-27.645c0-18.994,20.621-36.471,43.219-36.471
	c2.75,0,5.532,0.26,8.315,0.813V286.779L462,256V405.035z M238.833,290.333c-28.449,0-51.5-23.06-51.5-51.5s23.051-51.5,51.5-51.5
	c28.449,0,51.5,23.06,51.5,51.5S267.282,290.333,238.833,290.333z M238.833,273.167c18.927,0,34.333-15.398,34.333-34.334
	c0-18.935-15.406-34.333-34.333-34.333S204.5,219.898,204.5,238.833C204.5,257.769,219.906,273.167,238.833,273.167z
	 M207.618,318.581c-22.196-8.718-39.815-26.328-48.533-48.524l-17.603,2.205c10.293,29.966,33.981,53.637,63.939,63.922
	L207.618,318.581z M124.048,274.433l-17.167,2.154c12.992,45.465,48.75,81.223,94.215,94.207l2.146-17.175
	C165.573,341.908,135.766,312.119,124.048,274.433z M270.049,159.085c22.195,8.717,39.814,26.336,48.532,48.541l17.603-2.205
	c-10.293-29.975-33.965-53.654-63.939-63.939L270.049,159.085z M239.638,427.625c1.408-12.607,6.488-24.744,15.071-35.104
	c-5.214,0.528-10.511,0.812-15.876,0.812c-85.196,0-154.5-69.312-154.5-154.5c0-85.188,69.304-154.5,154.5-154.5
	c84.325,0,152.958,67.921,154.366,151.902l33.947-7.611C421.815,129.111,339.671,50,238.833,50C134.542,50,50,134.542,50,238.833
	c0,104.291,84.542,188.833,188.833,188.833C239.102,427.666,239.37,427.625,239.638,427.625z M276.57,106.873l-2.146,17.175
	c37.687,11.71,67.477,41.509,79.194,79.195l17.167-2.146C357.81,155.624,322.051,119.857,276.57,106.873z"/>
</svg>
