<?xml version="1.0" encoding="utf-8"?>

<!-- The icon can be used freely in both personal and commercial projects with no attribution required, but always appreciated. 
You may NOT sub-license, resell, rent, redistribute or otherwise transfer the icon without express written permission from iconmonstr.com -->

<!DOCTYPE svg PUBLIC "-//W3C//DTD SVG 1.1//EN" "http://www.w3.org/Graphics/SVG/1.1/DTD/svg11.dtd">
<svg version="1.1" xmlns="http://www.w3.org/2000/svg" xmlns:xlink="http://www.w3.org/1999/xlink" x="0px" y="0px"
	 width="512px" height="512px" viewBox="0 0 512 512" enable-background="new 0 0 512 512" xml:space="preserve">
<path id="microphone-8-icon" d="M306.5,254.083c-8.284,0-15-6.716-15-15s6.716-15,15-15h43.333v-26H306.5c-8.284,0-15-6.716-15-15
	s6.716-15,15-15h43.333v-26.125H306.5c-8.284,0-15-6.716-15-15s6.716-15,15-15h43.124c-2.58-34.553-31.411-61.791-66.624-61.791h-54
	c-35.213,0-64.044,27.238-66.624,61.791H204.5c8.284,0,15,6.716,15,15s-6.716,15-15,15h-42.333v26.125H204.5c8.284,0,15,6.716,15,15
	s-6.716,15-15,15h-42.333v26H204.5c8.284,0,15,6.716,15,15s-6.716,15-15,15h-42.146c2.438,34.692,31.334,62.084,66.646,62.084h54
	c35.312,0,64.208-27.392,66.646-62.084H306.5z M276.167,420.478v41.355H235.5v-41.589c0-33.577-15.209-50.243-33.333-77.012h107.666
	C291.617,369.867,276.167,386.569,276.167,420.478z"/>
</svg>
